<svg width="214" height="144" viewBox="0 0 214 144" fill="none" xmlns="http://www.w3.org/2000/svg">
<g clip-path="url(#clip0)">
<path d="M7.55241 68.2259C10.1518 62.9933 11.622 58.4357 10.8362 58.0463C10.0503 57.6569 7.30603 61.583 4.70663 66.8156C2.10723 72.0483 0.637052 76.6058 1.42289 76.9953C2.20873 77.3847 4.95301 73.4585 7.55241 68.2259Z" fill="#E0E0E0"/>
<path d="M139.414 133.635C142.013 128.403 143.688 123.946 143.154 123.682C142.62 123.417 140.08 127.444 137.48 132.677C134.881 137.91 133.207 142.366 133.741 142.631C134.275 142.895 136.815 138.868 139.414 133.635Z" fill="#E0E0E0"/>
<path d="M68.5553 107.182L63.656 103.142L50.1712 119.453L55.0704 123.494L68.5553 107.182Z" fill="#F55F44"/>
<path opacity="0.05" d="M57.2888 124.795L64.2479 126.429L69.0953 105.837L62.1362 104.203L57.2888 124.795Z" fill="black"/>
<path d="M58.0629 124.977L64.2479 126.429L69.0953 105.837L62.9103 104.385L58.0629 124.977Z" fill="#F55F44"/>
<path d="M11.0715 57.5725L1.18756 77.469L133.516 143.047L143.4 123.151L11.0715 57.5725Z" fill="url(#paint0_linear)"/>
<path d="M133.752 142.574C131.161 141.333 -0.474288 76.0551 1.4229 76.9953C8.72907 65.8573 10.8362 58.0463 10.8362 58.0463L143.165 123.625C143.165 123.625 138.518 131.771 133.752 142.574Z" fill="#F5F5F5"/>
<path opacity="0.05" d="M79.6091 92.1282L68.7003 86.7221L59.2871 105.671L70.1959 111.077L79.6091 92.1282Z" fill="black"/>
<path d="M79.1348 91.8932L69.1746 86.9572L59.7614 105.906L69.7216 110.842L79.1348 91.8932Z" fill="#F55F44"/>
<path opacity="0.05" d="M77.2377 90.953L70.5975 87.6623L61.1843 106.611L67.8244 109.902L77.2377 90.953Z" fill="black"/>
<path d="M76.7634 90.718L71.0718 87.8974L61.6586 106.846L67.3501 109.667L76.7634 90.718Z" fill="#F55F44"/>
<path d="M58.9756 88.7411L51.7339 99.5906C51.7339 99.5906 54.1478 110.741 107.555 110.44C160.963 110.139 165.187 99.5906 165.187 99.5906L155.23 85.1246L124.754 64.3298L58.9756 88.7411Z" fill="#E94560"/>
<path opacity="0.15" d="M58.9756 88.7411L51.7339 99.5906C51.7339 99.5906 54.1478 110.741 107.555 110.44C160.963 110.139 165.187 99.5906 165.187 99.5906L155.23 85.1246L124.754 64.3298L58.9756 88.7411Z" fill="black"/>
<path d="M213.012 48.5077L117.965 90.3987L2.09802 48.5077L108.309 0.287933L160.447 24.2984L162.314 25.1603L213.012 48.5077Z" fill="#E94560"/>
<path opacity="0.15" d="M213.012 48.5077L117.965 90.3987L2.09802 48.5077L108.309 0.287933L160.447 24.2984L162.314 25.1603L213.012 48.5077Z" fill="black"/>
<path d="M164.282 58.5495L162.471 58.658L160.447 24.2984L162.314 25.1603L164.282 58.5495Z" fill="#F5F5F5"/>
<path d="M60.1825 48.357L51.7339 99.5906C51.7339 99.5906 112.383 80.0013 165.187 99.5906L157.342 45.3433C157.342 45.3433 86.4337 36.6035 60.1825 48.357Z" fill="#E94560"/>
<path d="M164.131 69.0012C168.964 69.0012 172.881 66.3026 172.881 62.9737C172.881 59.6448 168.964 56.9462 164.131 56.9462C159.298 56.9462 155.381 59.6448 155.381 62.9737C155.381 66.3026 159.298 69.0012 164.131 69.0012Z" fill="#F5F5F5"/>
</g>
<defs>
<linearGradient id="paint0_linear" x1="67.3519" y1="110.258" x2="77.2167" y2="90.3523" gradientUnits="userSpaceOnUse">
<stop stop-color="#808080" stop-opacity="0.25"/>
<stop offset="0.53514" stop-color="#808080" stop-opacity="0.12"/>
<stop offset="1" stop-color="#808080" stop-opacity="0.1"/>
</linearGradient>
<clipPath id="clip0">
<rect width="213.151" height="144" fill="white"/>
</clipPath>
</defs>
</svg>
